# xmcd
#
# Track frame offsets:
#	150
#	11675
#	24344
#	36838
#	46284
#	57556
#	70816
#	81629
#	92519
#	101867
#	111650
#
# Disc length: 1618 seconds
#
# Revision: 1
# Processed by: cddbd v1.5.2PL0 Copyright (c) Steve Scherf et al.
# Submitted via: audiograbber 1.83.01
#
DISCID=9706500b
DTITLE=Jerry Lee Lewis - Another Place Another Time (vinyl)
DYEAR=1968
DGENRE=Country
TTITLE0=What's Made Milwaukee Famous (Has Made A Loser Out Of Me)
TTITLE1=Play Me A Song I Can Cry To
TTITLE2=On The Back Row
TTITLE3=Walking The Floor Over You
TTITLE4=All Night Long
TTITLE5=I'm A Lonesome Fugitive
TTITLE6=Another Place Another Time
TTITLE7=Break My Mind
TTITLE8=Before The Next Teardrop Falls
TTITLE9=All The Good Is Gone
TTITLE10=We Live In Two Different Worlds (with Linda Gail Lewis)
EXTD=
EXTT0=
EXTT1=
EXTT2=
EXTT3=
EXTT4=
EXTT5=
EXTT6=
EXTT7=
EXTT8=
EXTT9=
EXTT10=
PLAYORDER=
